<mxfile host="app.diagrams.net" agent="Mozilla/5.0 (X11; Linux x86_64; rv:128.0) Gecko/20100101 Firefox/128.0" version="25.0.1">
  <diagram id="C5RBs43oDa-KdzZeNtuy" name="Page-1">
    <mxGraphModel dx="571" dy="647" grid="1" gridSize="10" guides="1" tooltips="1" connect="1" arrows="1" fold="1" page="1" pageScale="1" pageWidth="827" pageHeight="1169" math="0" shadow="0">
      <root>
        <mxCell id="WIyWlLk6GJQsqaUBKTNV-0" />
        <mxCell id="WIyWlLk6GJQsqaUBKTNV-1" parent="WIyWlLk6GJQsqaUBKTNV-0" />
        <mxCell id="_57nTsCJQwketul-P8Tz-0" value="&lt;div&gt;Rubrica &lt;br&gt;&lt;/div&gt;&lt;div&gt;Main &lt;br&gt;&lt;/div&gt;" style="shape=folder;fontStyle=1;spacingTop=10;tabWidth=40;tabHeight=14;tabPosition=left;html=1;whiteSpace=wrap;" vertex="1" parent="WIyWlLk6GJQsqaUBKTNV-1">
          <mxGeometry x="80" y="280" width="180" height="100" as="geometry" />
        </mxCell>
        <mxCell id="_57nTsCJQwketul-P8Tz-1" value="&lt;div&gt;&lt;u&gt;Interfaccia Contatto&lt;/u&gt;&lt;/div&gt;&lt;div&gt;Informazioni Contatto&lt;br&gt;&lt;/div&gt;&lt;div&gt;Modifica_Contatto&lt;/div&gt;&lt;div&gt;Rimuovi_Contatto&lt;/div&gt;&lt;div&gt;Export_Contatto&lt;br&gt;&lt;/div&gt;" style="shape=folder;fontStyle=1;spacingTop=10;tabWidth=40;tabHeight=14;tabPosition=left;html=1;whiteSpace=wrap;" vertex="1" parent="WIyWlLk6GJQsqaUBKTNV-1">
          <mxGeometry x="80" y="440" width="180" height="160" as="geometry" />
        </mxCell>
        <mxCell id="_57nTsCJQwketul-P8Tz-2" value="&lt;div&gt;&lt;u&gt;Interfaccia Lista Contatti&lt;/u&gt;&lt;/div&gt;&lt;div&gt;Lista Contatti&lt;/div&gt;&lt;div&gt;Lista Contatti Preferiti&lt;br&gt;&lt;/div&gt;&lt;div&gt;Import / Export_Rubrica&amp;nbsp;&lt;/div&gt;&lt;div&gt;Aggiungi_Contatto&lt;/div&gt;&lt;div&gt;Ricerca_Contatto&lt;br&gt;&lt;/div&gt;" style="shape=folder;fontStyle=1;spacingTop=10;tabWidth=40;tabHeight=14;tabPosition=left;html=1;whiteSpace=wrap;" vertex="1" parent="WIyWlLk6GJQsqaUBKTNV-1">
          <mxGeometry x="360" y="280" width="180" height="160" as="geometry" />
        </mxCell>
        <mxCell id="_57nTsCJQwketul-P8Tz-3" value="" style="endArrow=open;endSize=12;dashed=1;html=1;rounded=0;fontSize=12;curved=1;exitX=0.467;exitY=1.03;exitDx=0;exitDy=0;exitPerimeter=0;entryX=0.481;entryY=0.106;entryDx=0;entryDy=0;entryPerimeter=0;" edge="1" parent="WIyWlLk6GJQsqaUBKTNV-1" source="_57nTsCJQwketul-P8Tz-0" target="_57nTsCJQwketul-P8Tz-1">
          <mxGeometry width="160" relative="1" as="geometry">
            <mxPoint x="290" y="400" as="sourcePoint" />
            <mxPoint x="450" y="400" as="targetPoint" />
          </mxGeometry>
        </mxCell>
        <mxCell id="_57nTsCJQwketul-P8Tz-5" value="" style="endArrow=open;endSize=12;dashed=1;html=1;rounded=0;fontSize=12;curved=1;entryX=0;entryY=0;entryDx=0;entryDy=50.5;entryPerimeter=0;exitX=1.014;exitY=0.498;exitDx=0;exitDy=0;exitPerimeter=0;" edge="1" parent="WIyWlLk6GJQsqaUBKTNV-1" source="_57nTsCJQwketul-P8Tz-0" target="_57nTsCJQwketul-P8Tz-2">
          <mxGeometry width="160" relative="1" as="geometry">
            <mxPoint x="240" y="460" as="sourcePoint" />
            <mxPoint x="400" y="460" as="targetPoint" />
          </mxGeometry>
        </mxCell>
        <mxCell id="_57nTsCJQwketul-P8Tz-6" value="" style="endArrow=open;endSize=12;dashed=1;html=1;rounded=0;fontSize=12;curved=1;exitX=0;exitY=0;exitDx=0;exitDy=123.5;exitPerimeter=0;entryX=0;entryY=0;entryDx=180;entryDy=50.5;entryPerimeter=0;" edge="1" parent="WIyWlLk6GJQsqaUBKTNV-1" source="_57nTsCJQwketul-P8Tz-2" target="_57nTsCJQwketul-P8Tz-1">
          <mxGeometry width="160" relative="1" as="geometry">
            <mxPoint x="240" y="460" as="sourcePoint" />
            <mxPoint x="400" y="460" as="targetPoint" />
          </mxGeometry>
        </mxCell>
      </root>
    </mxGraphModel>
  </diagram>
</mxfile>
